<svg xmlns="http://www.w3.org/2000/svg" viewBox="0 0 64 64"><defs><style>.cls-1{fill:#000842;}.cls-2{fill:#fff;}.cls-3{fill:#f6ae2d;stroke:#000;stroke-miterlimit:10;}</style></defs><title>ext_icon1</title><g id="Ebene_1" data-name="Ebene 1"><rect class="cls-1" width="64" height="64"/></g><g id="glossary2"><path d="M56.6,23.45V55.38a1.29,1.29,0,0,1-1.39,1.26H34.86a4.14,4.14,0,0,1-5.42,0H9.09A1.29,1.29,0,0,1,7.7,55.38V23.45a1.4,1.4,0,0,1,1.39-1.38h.54a34,34,0,0,1,22.34,0h.3a34,34,0,0,1,22.34,0h.6A1.4,1.4,0,0,1,56.6,23.45ZM54.16,55V23.51c-7.54-2.57-14.47-2.57-21.39,0l0,31.47A33,33,0,0,1,54.16,55Zm-22.75.12.12-31.59c-6.93-2.57-13.85-2.57-21.39,0L10,55.1a35.09,35.09,0,0,1,10.74-1.93A34.49,34.49,0,0,1,31.41,55.1Z"/><path class="cls-2" d="M54.17,23.51V55a33,33,0,0,0-21.4,0l0-31.47C39.7,20.94,46.63,20.94,54.17,23.51Z"/><path class="cls-2" d="M31.53,23.51,31.41,55.1a34.49,34.49,0,0,0-10.64-1.93A35.09,35.09,0,0,0,10,55.1l.11-31.59C17.68,20.94,24.6,20.94,31.53,23.51Z"/><path d="M27.33,33.35a17.66,17.66,0,0,0-13.14,0,.5.5,0,0,0-.29.68.51.51,0,0,0,.68.28,16.68,16.68,0,0,1,12.35,0c.06,0,.12,0,.17,0a.42.42,0,0,0,.45-.33A.45.45,0,0,0,27.33,33.35Z"/><path d="M27.33,37.63a17.66,17.66,0,0,0-13.14,0,.52.52,0,1,0,.39,1,16.68,16.68,0,0,1,12.35,0c.06,0,.12.06.17.06a.42.42,0,0,0,.45-.34A.46.46,0,0,0,27.33,37.63Z"/><path d="M27.33,46.21a17.56,17.56,0,0,0-13.14,0,.49.49,0,0,0-.29.67.5.5,0,0,0,.68.29,16.68,16.68,0,0,1,12.35,0c.06,0,.12,0,.17,0a.42.42,0,0,0,.45-.34A.43.43,0,0,0,27.33,46.21Z"/><path d="M27.33,41.92a17.66,17.66,0,0,0-13.14,0,.5.5,0,0,0-.29.68.51.51,0,0,0,.68.28,16.68,16.68,0,0,1,12.35,0c.06,0,.12.06.17.06a.43.43,0,0,0,.45-.34A.45.45,0,0,0,27.33,41.92Z"/><path d="M49.63,33.35a17.66,17.66,0,0,0-13.14,0,.52.52,0,0,0,.39,1,16.71,16.71,0,0,1,12.36,0s.11,0,.16,0a.44.44,0,0,0,.46-.33A.46.46,0,0,0,49.63,33.35Z"/><path d="M49.63,37.63a17.66,17.66,0,0,0-13.14,0,.5.5,0,0,0-.28.68.49.49,0,0,0,.67.28,16.71,16.71,0,0,1,12.36,0s.11.06.16.06a.43.43,0,0,0,.46-.34A.47.47,0,0,0,49.63,37.63Z"/><path d="M49.63,46.21a17.56,17.56,0,0,0-13.14,0,.52.52,0,0,0,.39,1,16.71,16.71,0,0,1,12.36,0s.11,0,.16,0a.43.43,0,0,0,.46-.34A.44.44,0,0,0,49.63,46.21Z"/><path d="M49.63,41.92a17.66,17.66,0,0,0-13.14,0,.52.52,0,0,0,.39,1,16.71,16.71,0,0,1,12.36,0s.11.06.16.06a.44.44,0,0,0,.46-.34A.46.46,0,0,0,49.63,41.92Z"/><path class="cls-3" d="M35,19.92H29.8a.7.7,0,0,1-.7-.7V18a.7.7,0,0,1,.7-.7H35a.7.7,0,0,1,.7.7v1.24A.7.7,0,0,1,35,19.92Z"/><path class="cls-3" d="M17.23,24.59l-1.07,3.17a.71.71,0,0,1-.67.48H13.18a.7.7,0,0,1-.67-.93l5.6-16.48a.69.69,0,0,1,.66-.48h3.77a.82.82,0,0,1,.78.55l5.81,16.4a.7.7,0,0,1-.66.94H25.9a.71.71,0,0,1-.67-.47l-1.14-3.19a.7.7,0,0,0-.66-.47H17.9A.71.71,0,0,0,17.23,24.59Zm4.89-3.65a.7.7,0,0,0,.66-.93c-.74-2.21-1.31-3.91-1.72-5.24a.5.5,0,0,0-1,0c-.44,1.47-1.11,3.66-1.66,5.42a.57.57,0,0,0,.54.74Z"/><path class="cls-3" d="M42.87,25.66h6.51a.82.82,0,0,1,.82.82v1.15a.82.82,0,0,1-.82.82H37.82a.82.82,0,0,1-.82-.82V27a1.36,1.36,0,0,1,.22-.73l7.55-11.76a.82.82,0,0,0-.69-1.26H37.83a.82.82,0,0,1-.82-.82V11.23a.82.82,0,0,1,.82-.82H49.29a.7.7,0,0,1,.7.7v.72a1.35,1.35,0,0,1-.22.72L42.18,24.4A.82.82,0,0,0,42.87,25.66Z"/></g></svg>