<svg xmlns="http://www.w3.org/2000/svg" viewBox="0 0 64 64"><defs><style>.cls-1{fill:#000842;}.cls-2{fill:#fff;}.cls-3{fill:#f6ae2d;stroke:#000842;stroke-miterlimit:10;}</style></defs><title>ext_icon</title><g id="Ebene_1" data-name="Ebene 1"><rect class="cls-1" width="64" height="64"/></g><g id="glossary2"><path d="M56.6,23.45V55.38a1.29,1.29,0,0,1-1.39,1.26H34.86a4.14,4.14,0,0,1-5.42,0H9.09A1.29,1.29,0,0,1,7.7,55.38V23.45a1.4,1.4,0,0,1,1.39-1.38h.54a34,34,0,0,1,22.34,0h.3a34,34,0,0,1,22.34,0h.6A1.4,1.4,0,0,1,56.6,23.45ZM54.16,55V23.51c-7.54-2.57-14.47-2.57-21.39,0l0,31.47A33,33,0,0,1,54.16,55Zm-22.75.12.12-31.59c-6.93-2.57-13.85-2.57-21.39,0L10,55.1a35.09,35.09,0,0,1,10.74-1.93A34.49,34.49,0,0,1,31.41,55.1Z"/><path class="cls-2" d="M54.17,23.51V55a33,33,0,0,0-21.4,0l0-31.47C39.7,20.94,46.63,20.94,54.17,23.51Z"/><path class="cls-2" d="M31.53,23.51,31.41,55.1a34.49,34.49,0,0,0-10.64-1.93A35.09,35.09,0,0,0,10,55.1l.11-31.59C17.68,20.94,24.6,20.94,31.53,23.51Z"/><path d="M27.33,33.35a17.66,17.66,0,0,0-13.14,0,.5.5,0,0,0-.29.68.51.51,0,0,0,.68.28,16.68,16.68,0,0,1,12.35,0c.06,0,.12,0,.17,0a.42.42,0,0,0,.45-.33A.45.45,0,0,0,27.33,33.35Z"/><path d="M27.33,37.63a17.66,17.66,0,0,0-13.14,0,.52.52,0,1,0,.39,1,16.68,16.68,0,0,1,12.35,0c.06,0,.12.06.17.06a.42.42,0,0,0,.45-.34A.46.46,0,0,0,27.33,37.63Z"/><path d="M27.33,46.21a17.56,17.56,0,0,0-13.14,0,.49.49,0,0,0-.29.67.5.5,0,0,0,.68.29,16.68,16.68,0,0,1,12.35,0c.06,0,.12,0,.17,0a.42.42,0,0,0,.45-.34A.43.43,0,0,0,27.33,46.21Z"/><path d="M27.33,41.92a17.66,17.66,0,0,0-13.14,0,.5.5,0,0,0-.29.68.51.51,0,0,0,.68.28,16.68,16.68,0,0,1,12.35,0c.06,0,.12.06.17.06a.43.43,0,0,0,.45-.34A.45.45,0,0,0,27.33,41.92Z"/><path d="M49.63,33.35a17.66,17.66,0,0,0-13.14,0,.52.52,0,0,0,.39,1,16.71,16.71,0,0,1,12.36,0s.11,0,.16,0a.44.44,0,0,0,.46-.33A.46.46,0,0,0,49.63,33.35Z"/><path d="M49.63,37.63a17.66,17.66,0,0,0-13.14,0,.5.5,0,0,0-.28.68.49.49,0,0,0,.67.28,16.71,16.71,0,0,1,12.36,0s.11.06.16.06a.43.43,0,0,0,.46-.34A.47.47,0,0,0,49.63,37.63Z"/><path d="M49.63,46.21a17.56,17.56,0,0,0-13.14,0,.52.52,0,0,0,.39,1,16.71,16.71,0,0,1,12.36,0s.11,0,.16,0a.43.43,0,0,0,.46-.34A.44.44,0,0,0,49.63,46.21Z"/><path d="M49.63,41.92a17.66,17.66,0,0,0-13.14,0,.52.52,0,0,0,.39,1,16.71,16.71,0,0,1,12.36,0s.11.06.16.06a.44.44,0,0,0,.46-.34A.46.46,0,0,0,49.63,41.92Z"/><path class="cls-3" d="M35.94,19.81H30.25a.76.76,0,0,1-.76-.76V17.7a.76.76,0,0,1,.76-.77h5.69a.76.76,0,0,1,.77.77v1.35A.76.76,0,0,1,35.94,19.81Z"/><path class="cls-3" d="M16.73,24.13,15.52,27.7a.8.8,0,0,1-.75.54H12.16a.8.8,0,0,1-.75-1l6.3-18.56a.79.79,0,0,1,.75-.53H22.7a.94.94,0,0,1,.89.62l6.54,18.46a.8.8,0,0,1-.75,1.06h-2.9a.78.78,0,0,1-.74-.53l-1.28-3.6a.81.81,0,0,0-.75-.52H17.48A.78.78,0,0,0,16.73,24.13ZM22.23,20A.8.8,0,0,0,23,19c-.84-2.49-1.48-4.4-1.94-5.89a.57.57,0,0,0-1.09,0c-.49,1.66-1.24,4.13-1.86,6.11a.64.64,0,0,0,.61.83Z"/><path class="cls-3" d="M43.57,25.33h7.29a.91.91,0,0,1,.91.91v1.29a.92.92,0,0,1-.91.92H37.92a.92.92,0,0,1-.92-.92v-.76a1.54,1.54,0,0,1,.24-.81l8.45-13.17a.91.91,0,0,0-.77-1.41h-7a.92.92,0,0,1-.91-.92V9.17a.91.91,0,0,1,.91-.91H50.75a.78.78,0,0,1,.78.78v.8a1.53,1.53,0,0,1-.23.81L42.8,23.92A.92.92,0,0,0,43.57,25.33Z"/></g></svg>